<svg xmlns="http://www.w3.org/2000/svg" viewBox="0 0 156.3 156.3"><defs><style>.cls-1{fill:#61505d;}</style></defs><title>Ativo 4logo</title><g id="Camada_2" data-name="Camada 2"><g id="Camada_1-2" data-name="Camada 1"><path class="cls-1" d="M95.3,64.81H61V30.5H62.9A32.43,32.43,0,0,1,95.3,62.9ZM64.81,61H91.43A28.65,28.65,0,0,0,64.81,34.37Z"/><path class="cls-1" d="M93.4,95.3H91.49V61H125.8V62.9A32.43,32.43,0,0,1,93.4,95.3Zm1.9-30.49V91.43a28.64,28.64,0,0,0,26.62-26.62Z"/><path class="cls-1" d="M125.8,34.31H91.49V0H93.4a32.44,32.44,0,0,1,32.4,32.4ZM95.3,30.5h26.62A28.63,28.63,0,0,0,95.3,3.88Z"/><path class="cls-1" d="M123.89,64.81H122V30.5H156.3v1.9A32.45,32.45,0,0,1,123.89,64.81Zm1.91-30.5V60.93a28.63,28.63,0,0,0,26.62-26.62Z"/><path class="cls-1" d="M95.3,125.8H93.4A32.44,32.44,0,0,1,61,93.4V91.49H95.3ZM64.87,95.3a28.64,28.64,0,0,0,26.62,26.63V95.3Z"/><path class="cls-1" d="M123.89,125.8H122V91.49H156.3V93.4A32.44,32.44,0,0,1,123.89,125.8Zm1.91-30.5v26.63A28.64,28.64,0,0,0,152.42,95.3Z"/><path class="cls-1" d="M125.8,156.3h-1.91a32.44,32.44,0,0,1-32.4-32.4V122H125.8ZM95.37,125.8A28.63,28.63,0,0,0,122,152.42V125.8Z"/><path class="cls-1" d="M64.81,95.3H30.5V93.4A32.44,32.44,0,0,1,62.9,61h1.91ZM34.37,91.49H61V64.87A28.64,28.64,0,0,0,34.37,91.49Z"/><path class="cls-1" d="M65.2,155.91H63.29a32.44,32.44,0,0,1-32.4-32.41v-1.9H65.2Zm-30.44-30.5A28.64,28.64,0,0,0,61.38,152V125.41Z"/><path class="cls-1" d="M34.7,125.41H.39V123.5a32.44,32.44,0,0,1,32.4-32.4H34.7ZM4.27,121.6H30.89V95A28.63,28.63,0,0,0,4.27,121.6Z"/><path class="cls-1" d="M64.81,34.31H30.5V0h1.9A32.45,32.45,0,0,1,64.81,32.4ZM34.31,30.5H60.93A28.63,28.63,0,0,0,34.31,3.88Z"/><path class="cls-1" d="M34.31,64.81H0V62.9A32.44,32.44,0,0,1,32.4,30.5h1.91ZM3.88,61H30.5V34.37A28.64,28.64,0,0,0,3.88,61Z"/></g></g></svg>