<svg xmlns="http://www.w3.org/2000/svg" viewBox="0 0 323.2 56.49"><defs><style>.cls-1{fill:#61505d;}</style></defs><title>Ativo 3logo</title><g id="Camada_2" data-name="Camada 2"><g id="Camada_1-2" data-name="Camada 1"><path class="cls-1" d="M40,51.15q-6.15,5.34-17,5.34-11,0-17-5.31T0,34.81V1.14H11.91V34.81a24.86,24.86,0,0,0,.37,4.32,8.89,8.89,0,0,0,1.6,3.75,8.76,8.76,0,0,0,3.37,2.66,13.77,13.77,0,0,0,5.8,1q6.38,0,8.8-2.84t2.42-8.91V1.14H46.18V34.81Q46.18,45.81,40,51.15Z"/><path class="cls-1" d="M66.35,1.14V55.28H55.58V1.14Z"/><path class="cls-1" d="M96.38,16.08v7.2H88.49V42.69c0,1.82.3,3,.91,3.64s1.82.91,3.64.91c.61,0,1.19,0,1.75-.07a15.59,15.59,0,0,0,1.59-.23v8.34a25.85,25.85,0,0,1-3,.3c-1.11.05-2.2.08-3.26.08a32.53,32.53,0,0,1-4.74-.34A11.18,11.18,0,0,1,81.4,54a7,7,0,0,1-2.69-2.81,10,10,0,0,1-1-4.77V23.28H71.2v-7.2h6.52V4.32H88.49V16.08Z"/><path class="cls-1" d="M111.77,16.08v7.28h.15a13.46,13.46,0,0,1,5-6,14.41,14.41,0,0,1,3.56-1.71,13,13,0,0,1,3.94-.61,8.49,8.49,0,0,1,2.35.38v10c-.5-.1-1.11-.19-1.82-.26a18.1,18.1,0,0,0-2-.12,11.47,11.47,0,0,0-5,1,8.75,8.75,0,0,0-3.3,2.69,10.86,10.86,0,0,0-1.78,4,21.92,21.92,0,0,0-.53,4.93V55.28H101.53V16.08Z"/><path class="cls-1" d="M132.47,21.84a12.86,12.86,0,0,1,4.25-4,18.53,18.53,0,0,1,5.8-2.16A33,33,0,0,1,149,15a43.62,43.62,0,0,1,6,.42,18.41,18.41,0,0,1,5.54,1.63,10.9,10.9,0,0,1,4.09,3.38,9.43,9.43,0,0,1,1.59,5.72v20.4a41.38,41.38,0,0,0,.31,5.08,9.07,9.07,0,0,0,1.06,3.64H156.66a15,15,0,0,1-.49-1.86,15.2,15.2,0,0,1-.27-1.93,14,14,0,0,1-6.06,3.71,24.34,24.34,0,0,1-7.13,1.06,19,19,0,0,1-5.23-.68,11.87,11.87,0,0,1-4.25-2.12,9.85,9.85,0,0,1-2.84-3.64,12.2,12.2,0,0,1-1-5.23,11.35,11.35,0,0,1,1.18-5.5,9.78,9.78,0,0,1,3-3.45,13.53,13.53,0,0,1,4.25-1.93,46.79,46.79,0,0,1,4.81-1c1.62-.25,3.21-.45,4.78-.6a28.74,28.74,0,0,0,4.17-.69,7.27,7.27,0,0,0,2.88-1.32,2.91,2.91,0,0,0,1-2.54,5.69,5.69,0,0,0-.57-2.77,4.16,4.16,0,0,0-1.52-1.59,5.8,5.8,0,0,0-2.2-.76,17.47,17.47,0,0,0-2.69-.19,8.16,8.16,0,0,0-5,1.36,6.07,6.07,0,0,0-2.13,4.55H130.58A12.53,12.53,0,0,1,132.47,21.84ZM153.74,37a16.4,16.4,0,0,1-2.2.57c-.78.15-1.6.28-2.46.38s-1.72.23-2.58.38a17.81,17.81,0,0,0-2.39.61,7,7,0,0,0-2.05,1,4.81,4.81,0,0,0-1.4,1.63,5.29,5.29,0,0,0-.53,2.5,5.13,5.13,0,0,0,.53,2.43,4.06,4.06,0,0,0,1.44,1.55,6.11,6.11,0,0,0,2.12.8,13.78,13.78,0,0,0,2.51.23,9.63,9.63,0,0,0,4.93-1.06,7.11,7.11,0,0,0,2.57-2.54,8.19,8.19,0,0,0,1-3,22.05,22.05,0,0,0,.19-2.43v-4A4.72,4.72,0,0,1,153.74,37Z"/><path class="cls-1" d="M213.27,11.94a15.34,15.34,0,0,0-3.8-4.13,16.84,16.84,0,0,0-4.93-2.54,18.18,18.18,0,0,0-5.64-.87,19.51,19.51,0,0,0-9.26,2.05,18.4,18.4,0,0,0-6.33,5.42,23.56,23.56,0,0,0-3.64,7.62,32.93,32.93,0,0,0,0,17.4,23.47,23.47,0,0,0,3.64,7.66A18.4,18.4,0,0,0,189.64,50,19.51,19.51,0,0,0,198.9,52a16.45,16.45,0,0,0,6.82-1.37A16.05,16.05,0,0,0,211,46.94a19,19,0,0,0,3.57-5.5,22.84,22.84,0,0,0,1.74-6.79h5.16a29.5,29.5,0,0,1-2.35,9,22.25,22.25,0,0,1-4.7,6.82,20.09,20.09,0,0,1-6.79,4.32,23.86,23.86,0,0,1-8.68,1.52A25.59,25.59,0,0,1,187.71,54a23.14,23.14,0,0,1-8-6.18,26.48,26.48,0,0,1-4.78-9,35.6,35.6,0,0,1-1.59-10.69,35.55,35.55,0,0,1,1.59-10.69,26.86,26.86,0,0,1,4.78-9,23.13,23.13,0,0,1,8-6.22A25.59,25.59,0,0,1,198.9,0a25.34,25.34,0,0,1,7.54,1.14,21.83,21.83,0,0,1,6.67,3.37,19.68,19.68,0,0,1,5,5.5,18.58,18.58,0,0,1,2.54,7.51H215.5A17.36,17.36,0,0,0,213.27,11.94Z"/><path class="cls-1" d="M229.38,22.22a11.22,11.22,0,0,1,3.3-4.1,14.07,14.07,0,0,1,4.89-2.35,24,24,0,0,1,6.22-.76,27.31,27.31,0,0,1,5.15.5,12.53,12.53,0,0,1,4.63,1.86,10.07,10.07,0,0,1,3.33,3.82,13.83,13.83,0,0,1,1.29,6.41V48.38c0,1.92.94,2.88,2.81,2.88a3.78,3.78,0,0,0,1.52-.3v4c-.56.1-1,.17-1.48.22a14.49,14.49,0,0,1-1.63.08,7.18,7.18,0,0,1-2.92-.49,3.87,3.87,0,0,1-1.71-1.41,5.31,5.31,0,0,1-.8-2.16,19.3,19.3,0,0,1-.19-2.76h-.15A33.43,33.43,0,0,1,251,51.83a13,13,0,0,1-3,2.46,13.51,13.51,0,0,1-3.72,1.52,20.48,20.48,0,0,1-5,.53,19.57,19.57,0,0,1-5.12-.64,11.62,11.62,0,0,1-4.17-2.05,9.84,9.84,0,0,1-2.81-3.57,11.85,11.85,0,0,1-1-5.11,10.14,10.14,0,0,1,1.82-6.41A11.49,11.49,0,0,1,232.9,35a27.55,27.55,0,0,1,6.75-1.7q3.76-.49,7.62-.95c1-.1,1.9-.23,2.66-.38a4.53,4.53,0,0,0,1.89-.8A3.65,3.65,0,0,0,253,29.65a6.68,6.68,0,0,0,.42-2.58,8.72,8.72,0,0,0-.8-4,6.17,6.17,0,0,0-2.2-2.46,8.88,8.88,0,0,0-3.26-1.26,22.79,22.79,0,0,0-4-.34,12.06,12.06,0,0,0-7.43,2.16c-1.92,1.44-2.93,3.76-3,6.94h-4.77A15.85,15.85,0,0,1,229.38,22.22ZM253.26,33.9a2.73,2.73,0,0,1-1.74,1.21,18.33,18.33,0,0,1-2.27.53c-2,.35-4.11.67-6.26,1a34.15,34.15,0,0,0-5.88,1.25,11.5,11.5,0,0,0-4.36,2.39,5.7,5.7,0,0,0-1.7,4.43,7,7,0,0,0,.72,3.23,7.79,7.79,0,0,0,1.93,2.42,8.38,8.38,0,0,0,2.81,1.56,10.31,10.31,0,0,0,3.26.53,16.32,16.32,0,0,0,5.23-.84,12.78,12.78,0,0,0,4.36-2.42,11.55,11.55,0,0,0,4.06-9V33.9Z"/><path class="cls-1" d="M272.15,16.15v9.18h.15A15,15,0,0,1,278,18a14.76,14.76,0,0,1,9.13-2.35V20.4a14.47,14.47,0,0,0-5.91.87,13.34,13.34,0,0,0-4.59,2.92,13,13,0,0,0-3,4.51,15.06,15.06,0,0,0-1.06,5.73V55.28h-4.78V16.15Z"/><path class="cls-1" d="M293.79,42.35a14.74,14.74,0,0,0,2.32,5,13.27,13.27,0,0,0,4,3.64A11.2,11.2,0,0,0,306,52.4q5.24,0,8.19-2.73a14.33,14.33,0,0,0,4.1-7.28H323a19.11,19.11,0,0,1-5.58,10.31Q313.4,56.35,306,56.34a18.19,18.19,0,0,1-8-1.63,14.73,14.73,0,0,1-5.49-4.47,19.41,19.41,0,0,1-3.15-6.6,30.05,30.05,0,0,1-1-7.92,28.57,28.57,0,0,1,1-7.59,20.21,20.21,0,0,1,3.15-6.63A15.6,15.6,0,0,1,298,16.8,16.9,16.9,0,0,1,306,15a15.48,15.48,0,0,1,13.46,6.87,20.54,20.54,0,0,1,3,7.05,30.79,30.79,0,0,1,.76,8.07H293.07A21.2,21.2,0,0,0,293.79,42.35Zm23.66-14.6A14.28,14.28,0,0,0,315,23.32a12.11,12.11,0,0,0-3.87-3.11A11.11,11.11,0,0,0,306,19a11.29,11.29,0,0,0-5.23,1.18,12.18,12.18,0,0,0-3.86,3.11,15.29,15.29,0,0,0-2.54,4.47,22,22,0,0,0-1.26,5.2H318.4A17.34,17.34,0,0,0,317.45,27.75Z"/></g></g></svg>