<svg xmlns="http://www.w3.org/2000/svg" viewBox="0 0 541.99 156.3"><defs><style>.cls-1{fill:#fde3d7;}</style></defs><title>Ativo 5</title><g id="Camada_2" data-name="Camada 2"><g id="Camada_1-2" data-name="Camada 1"><path class="cls-1" d="M95.3,64.81H61V30.5H62.9A32.43,32.43,0,0,1,95.3,62.9ZM64.81,61H91.43A28.65,28.65,0,0,0,64.81,34.37Z"/><path class="cls-1" d="M93.4,95.3H91.49V61H125.8V62.9A32.43,32.43,0,0,1,93.4,95.3Zm1.9-30.49V91.43a28.64,28.64,0,0,0,26.62-26.62Z"/><path class="cls-1" d="M125.8,34.31H91.49V0H93.4a32.44,32.44,0,0,1,32.4,32.4ZM95.3,30.5h26.62A28.63,28.63,0,0,0,95.3,3.88Z"/><path class="cls-1" d="M123.89,64.81H122V30.5H156.3v1.9A32.45,32.45,0,0,1,123.89,64.81Zm1.91-30.5V60.93a28.63,28.63,0,0,0,26.62-26.62Z"/><path class="cls-1" d="M95.3,125.8H93.4A32.44,32.44,0,0,1,61,93.4V91.49H95.3ZM64.87,95.3a28.64,28.64,0,0,0,26.62,26.63V95.3Z"/><path class="cls-1" d="M123.89,125.8H122V91.49H156.3V93.4A32.44,32.44,0,0,1,123.89,125.8Zm1.91-30.5v26.63A28.64,28.64,0,0,0,152.42,95.3Z"/><path class="cls-1" d="M125.8,156.3h-1.91a32.44,32.44,0,0,1-32.4-32.4V122H125.8ZM95.37,125.8A28.63,28.63,0,0,0,122,152.42V125.8Z"/><path class="cls-1" d="M64.81,95.3H30.5V93.4A32.44,32.44,0,0,1,62.9,61h1.91ZM34.37,91.49H61V64.87A28.64,28.64,0,0,0,34.37,91.49Z"/><path class="cls-1" d="M65.2,155.91H63.29a32.44,32.44,0,0,1-32.4-32.41v-1.9H65.2Zm-30.44-30.5A28.64,28.64,0,0,0,61.38,152V125.41Z"/><path class="cls-1" d="M34.7,125.41H.39V123.5a32.44,32.44,0,0,1,32.4-32.4H34.7ZM4.27,121.6H30.89V95A28.63,28.63,0,0,0,4.27,121.6Z"/><path class="cls-1" d="M64.81,34.31H30.5V0h1.9A32.45,32.45,0,0,1,64.81,32.4ZM34.31,30.5H60.93A28.63,28.63,0,0,0,34.31,3.88Z"/><path class="cls-1" d="M34.31,64.81H0V62.9A32.44,32.44,0,0,1,32.4,30.5h1.91ZM3.88,61H30.5V34.37A28.64,28.64,0,0,0,3.88,61Z"/><path class="cls-1" d="M218.6,122.27c0,3.31,0,3.52,2.39,3.8v1h-7.87v-1c2.39-.29,2.39-.53,2.39-3.8v-7.52c-.1-1.87-.14-2.53-2.28-2.53v-.85l5.38-2.07Zm-2-16.62a2.34,2.34,0,0,1,0-4.68,2.34,2.34,0,0,1,0,4.68Z"/><path class="cls-1" d="M231.36,122.27c0,3.3,0,3.51,2.39,3.8v1h-7.87v-1c2.39-.28,2.39-.49,2.39-3.8v-7.56c-.11-1.86-.15-2.53-2.29-2.53v-.84l5.38-2.08v3.48a7.69,7.69,0,0,1,5.83-3.23,4.54,4.54,0,0,1,4.19,3.23c1.68-1.65,3.51-3.24,6-3.24a4.09,4.09,0,0,1,3.76,1.94c.77,1.33.74,3.26.74,4.85v6c0,3.31,0,3.52,2.36,3.8v1h-7.84v-1c2.39-.28,2.39-.49,2.39-3.8V116c0-1.9,0-4.6-2.57-4.6-1.83,0-3.45,1.3-4.61,2.56v8.34c0,3.3,0,3.51,2.39,3.79v1h-7.84v-1c2.35-.29,2.35-.5,2.35-3.8V116c0-1.9-.07-4.61-2.67-4.61a6.29,6.29,0,0,0-4.5,2.57Z"/><path class="cls-1" d="M269.15,114.38c0-1.72-.36-3.73-2.47-3.72-1.75,0-2.49,1.16-2.88,2.67-.31,1.09-.77,1.76-2,1.76a1.51,1.51,0,0,1-1.65-1.55c0-2.92,4.11-4,6.4-4a7.18,7.18,0,0,1,4.46,1.22c1.27,1.06,1.27,2.54,1.27,4v8c0,.84,0,2.39,1.06,2.39a2.07,2.07,0,0,0,1.44-.88l.46.74c-.88,1.3-1.94,2.46-3.59,2.46a2.46,2.46,0,0,1-2.39-2.46,9.3,9.3,0,0,1-5.62,2.46,4,4,0,0,1-4.15-4.18c0-4.68,6.11-5.87,9.7-6.58Zm0,3.48c-2.5.42-6.36,2.11-6.36,5a2.55,2.55,0,0,0,2.56,2.71,6,6,0,0,0,3.8-2Z"/><path class="cls-1" d="M289.22,124.57c2.36.6,6.54,1.16,6.54,4.36,0,3.86-5.38,4.32-8.33,4.32-2.28,0-8.72-.31-8.72-3.51,0-2.5,3.55-3.09,5.31-3.69-1-.39-3.66-1-3.66-2.5s1.9-2.28,3.13-2.56a6.08,6.08,0,0,1-3-5.35c0-3.83,3.51-6.15,7.06-6.15a6.88,6.88,0,0,1,4.71,1.68,5.56,5.56,0,0,1,3.63-1.86,1.8,1.8,0,0,1,1.79,1.9,1.6,1.6,0,0,1-1.44,1.68c-1.3,0-1.44-1.4-2.67-1.4a1.05,1.05,0,0,0-.67.32,6,6,0,0,1,1.4,4c0,3.73-3.51,6.15-6.88,6.15a8.28,8.28,0,0,1-2.92-.52c-.39.14-1,.35-1,.88,0,1,2.32,1.37,2.95,1.54Zm-3.41,1.9c-1.44.46-4,1.23-4,3.13,0,2.32,4.21,2.49,6,2.49,1.58,0,5.31-.21,5.3-2.21,0-1.3-1.58-1.76-2.56-2.08Zm1.68-15.82c-2.67,0-3.65,3-3.65,5.24s1.06,5,3.73,5S291,118.17,291,116,290.06,110.65,287.49,110.65Z"/><path class="cls-1" d="M306.05,117.39c0,3.45,1,8.54,5.42,8.54a7.18,7.18,0,0,0,5.77-3.2l.59.56a8.07,8.07,0,0,1-6.81,4.15,8.55,8.55,0,0,1-8.51-8.82c0-4.5,3.12-9.14,8-9.14,4.4,0,7.42,3.76,7.42,7.91Zm8.37-1.34c.21-2.42-.84-5.41-3.9-5.41s-4.22,3-4.29,5.42Z"/><path class="cls-1" d="M328.73,122.24c0,3.3,0,3.51,2.39,3.79v1h-7.87v-1c2.39-.28,2.39-.49,2.39-3.79v-7.56c-.1-1.87-.14-2.53-2.28-2.53v-.85l5.37-2.07v3.48a7.67,7.67,0,0,1,5.83-3.24,4.56,4.56,0,0,1,4.19,3.23c1.68-1.65,3.51-3.23,6-3.23a4.08,4.08,0,0,1,3.76,1.93c.77,1.34.74,3.27.74,4.85v6c0,3.3,0,3.51,2.36,3.79v1h-7.84v-1c2.39-.29,2.39-.5,2.39-3.8v-6.29c0-1.9,0-4.61-2.56-4.61-1.83,0-3.45,1.3-4.61,2.57v8.33c0,3.31,0,3.52,2.39,3.8v1h-7.84v-1c2.35-.28,2.35-.49,2.35-3.8v-6.29c0-1.9-.07-4.61-2.67-4.6a6.31,6.31,0,0,0-4.5,2.56Z"/><path class="cls-1" d="M384.2,122.85c-1.69,2.56-4.22,4.57-7.42,4.57-4.6,0-7.87-4.18-7.87-8.54,0-5.2,3.54-9.42,9-9.42,2,0,5.76,1.22,5.76,3.69a1.82,1.82,0,0,1-1.9,1.75c-2.6,0-1.58-4.28-5-4.28-3.62,0-4.33,4.78-4.32,7.49,0,3.33,1.86,7.45,5.76,7.45,2.39,0,3.94-1.55,5.45-3.2Z"/><path class="cls-1" d="M389.4,118.73c0-4.57,3-9.28,8-9.28s7.81,4.78,7.81,9.24-3.33,8.72-8,8.72C392.67,127.41,389.4,123.06,389.4,118.73Zm12.23-.7c0-2.57-.81-7.42-4.25-7.42S393,115.25,393,118c0,2.49.81,8.29,4.22,8.29C400.83,126.25,401.63,120.73,401.63,118Z"/><path class="cls-1" d="M416.4,122.2c0,3.31,0,3.52,2.39,3.8v1h-7.88v-1c2.39-.28,2.39-.49,2.39-3.8v-7.55c-.11-1.87-.14-2.54-2.29-2.53v-.85l5.38-2.07v3.48a7.69,7.69,0,0,1,5.84-3.24,4.54,4.54,0,0,1,4.18,3.23c1.69-1.65,3.52-3.23,6-3.23a4.09,4.09,0,0,1,3.77,1.93c.77,1.33.73,3.27.74,4.85v6c0,3.3,0,3.51,2.35,3.79v1h-7.84v-1c2.4-.28,2.4-.49,2.39-3.79v-6.3c0-1.9,0-4.6-2.57-4.6-1.82,0-3.44,1.3-4.6,2.57v8.33c0,3.3,0,3.52,2.39,3.8v1h-7.83v-1c2.35-.28,2.35-.49,2.35-3.8v-6.29c0-1.9-.08-4.61-2.68-4.61-1.82,0-3.44,1.31-4.5,2.57Z"/><path class="cls-1" d="M466.48,114.31c0-1.72-.35-3.73-2.46-3.72-1.75,0-2.49,1.15-2.88,2.67-.32,1.09-.77,1.76-2,1.76a1.51,1.51,0,0,1-1.65-1.55c0-2.92,4.11-4,6.4-4a7.14,7.14,0,0,1,4.46,1.22c1.27,1.06,1.27,2.53,1.27,4v8c0,.84,0,2.39,1.06,2.39a2.09,2.09,0,0,0,1.44-.88l.45.73c-.87,1.31-1.93,2.47-3.58,2.47a2.46,2.46,0,0,1-2.39-2.46,9.33,9.33,0,0,1-5.63,2.46,4,4,0,0,1-4.14-4.18c0-4.68,6.11-5.88,9.7-6.58Zm0,3.48c-2.5.42-6.37,2.11-6.36,5a2.55,2.55,0,0,0,2.56,2.71,6,6,0,0,0,3.8-2Z"/><path class="cls-1" d="M486.52,109.8V111h-4.18v11.21c0,3.3,0,3.52,2.36,3.8H486v1h-10v-1h1c2.36-.28,2.36-.49,2.36-3.8V111H475.9v-1.16h3.34a11.06,11.06,0,0,1,1.06-5.17c1-1.87,3.05-3.76,5.27-3.76,1.12,0,2.39.59,2.39,1.86a1.58,1.58,0,0,1-1.65,1.54c-1.16,0-1.55-1.3-2.71-1.3s-1.27,1.69-1.27,2.68v4.14Z"/><path class="cls-1" d="M494.11,117.32c0,3.45,1,8.55,5.42,8.54a7.19,7.19,0,0,0,5.77-3.2l.59.57a8.12,8.12,0,0,1-6.82,4.15,8.57,8.57,0,0,1-8.51-8.82c0-4.5,3.13-9.15,8.05-9.15,4.39,0,7.42,3.76,7.42,7.91Zm8.37-1.33c.21-2.43-.85-5.42-3.9-5.42s-4.22,3-4.29,5.42Z"/><path class="cls-1" d="M510.84,111v-.84a8,8,0,0,0,4.5-6.47h1.16v6.15h4.92V111H516.5V121.6c0,1.59-.18,3.91,2,3.91,1.37,0,2.22-.88,3.1-1.76l.59.7c-1.33,1.51-3.09,2.92-5.23,2.92-3.1,0-3.56-2.53-3.56-5V111Z"/><path class="cls-1" d="M526.21,118.68c0-4.57,3-9.28,8-9.28s7.81,4.78,7.81,9.24-3.34,8.72-8,8.72C529.48,127.36,526.21,123,526.21,118.68Zm12.23-.7c0-2.57-.81-7.42-4.26-7.42s-4.42,4.64-4.42,7.35c0,2.49.81,8.29,4.22,8.29C537.63,126.2,538.44,120.68,538.44,118Z"/><path class="cls-1" d="M256.28,80.16q-6.13,5.34-17,5.35-11,0-17-5.31t-6-16.38V30.15h11.9V63.82a24.7,24.7,0,0,0,.38,4.32,8.65,8.65,0,0,0,1.59,3.75,8.78,8.78,0,0,0,3.38,2.66,13.74,13.74,0,0,0,5.8,1c4.24,0,7.18-.95,8.79-2.84s2.43-4.87,2.43-8.91V30.15h11.91V63.82Q262.43,74.82,256.28,80.16Z"/><path class="cls-1" d="M282.6,30.15V84.29H271.83V30.15Z"/><path class="cls-1" d="M312.62,45.09v7.2h-7.88V71.7c0,1.83.3,3,.91,3.64s1.82.91,3.64.91c.6,0,1.18,0,1.74-.07a14.82,14.82,0,0,0,1.59-.23v8.34a28.1,28.1,0,0,1-3,.31c-1.11.05-2.2.07-3.26.07a31.09,31.09,0,0,1-4.74-.34A11.11,11.11,0,0,1,297.65,83a7,7,0,0,1-2.7-2.8,10.11,10.11,0,0,1-1-4.78V52.29h-6.52v-7.2H294V33.34h10.77V45.09Z"/><path class="cls-1" d="M328,45.09v7.28h.15a13.36,13.36,0,0,1,5-6,14.67,14.67,0,0,1,3.57-1.71,12.93,12.93,0,0,1,3.94-.6,8.13,8.13,0,0,1,2.35.38v10c-.51-.1-1.11-.19-1.82-.27a18.2,18.2,0,0,0-2-.11,11.55,11.55,0,0,0-5,1,8.69,8.69,0,0,0-3.3,2.69,10.83,10.83,0,0,0-1.78,4,21.27,21.27,0,0,0-.53,4.92V84.29H317.78V45.09Z"/><path class="cls-1" d="M348.72,50.85a12.93,12.93,0,0,1,4.24-4,18.53,18.53,0,0,1,5.8-2.16,33,33,0,0,1,6.49-.64,45.23,45.23,0,0,1,6,.41,18.55,18.55,0,0,1,5.53,1.63,10.93,10.93,0,0,1,4.1,3.38,9.43,9.43,0,0,1,1.59,5.72v20.4a41.3,41.3,0,0,0,.3,5.08,9.17,9.17,0,0,0,1.07,3.64H372.91a14.41,14.41,0,0,1-.5-1.85,17.74,17.74,0,0,1-.26-1.94,14,14,0,0,1-6.07,3.72A24.58,24.58,0,0,1,359,85.28a19.45,19.45,0,0,1-5.23-.68,12,12,0,0,1-4.24-2.13,9.77,9.77,0,0,1-2.85-3.64,12.32,12.32,0,0,1-1-5.23,11.49,11.49,0,0,1,1.17-5.5,9.9,9.9,0,0,1,3-3.45,13.48,13.48,0,0,1,4.24-1.93,44.41,44.41,0,0,1,4.82-1c1.61-.26,3.21-.46,4.77-.61a29.21,29.21,0,0,0,4.18-.68,7.41,7.41,0,0,0,2.88-1.33,2.93,2.93,0,0,0,1-2.54,5.71,5.71,0,0,0-.57-2.77,4.2,4.2,0,0,0-1.51-1.59,6,6,0,0,0-2.2-.76,18.92,18.92,0,0,0-2.69-.19,8.19,8.19,0,0,0-5,1.37,6.08,6.08,0,0,0-2.12,4.55H346.82A12.44,12.44,0,0,1,348.72,50.85ZM370,66.06a19.09,19.09,0,0,1-2.2.56c-.79.16-1.61.28-2.47.38s-1.72.23-2.58.38a19.78,19.78,0,0,0-2.38.61,6.9,6.9,0,0,0-2.05,1,4.9,4.9,0,0,0-1.4,1.63,5.22,5.22,0,0,0-.53,2.51,5,5,0,0,0,.53,2.42,4,4,0,0,0,1.44,1.56,6,6,0,0,0,2.12.79,13.67,13.67,0,0,0,2.5.23,9.48,9.48,0,0,0,4.93-1.06,7.22,7.22,0,0,0,2.58-2.54,7.93,7.93,0,0,0,1-3,19.82,19.82,0,0,0,.19-2.42v-4A4.89,4.89,0,0,1,370,66.06Z"/><path class="cls-1" d="M429.51,41a15.35,15.35,0,0,0-3.79-4.14,17,17,0,0,0-4.93-2.54,18.25,18.25,0,0,0-5.65-.87,19.47,19.47,0,0,0-9.25,2.05,18.22,18.22,0,0,0-6.33,5.42,23.36,23.36,0,0,0-3.64,7.62,32.66,32.66,0,0,0,0,17.4,23.27,23.27,0,0,0,3.64,7.66A18.35,18.35,0,0,0,405.89,79a19.58,19.58,0,0,0,9.25,2A16.49,16.49,0,0,0,422,79.67,16.19,16.19,0,0,0,427.2,76a19.08,19.08,0,0,0,3.56-5.5,23.09,23.09,0,0,0,1.75-6.78h5.15a29,29,0,0,1-2.35,9,22.13,22.13,0,0,1-4.7,6.83,19.9,19.9,0,0,1-6.79,4.32,23.78,23.78,0,0,1-8.68,1.51A25.58,25.58,0,0,1,404,83a23.14,23.14,0,0,1-8-6.18,26.13,26.13,0,0,1-4.78-9,36.73,36.73,0,0,1,0-21.38,26.6,26.6,0,0,1,4.78-9,23,23,0,0,1,8-6.21,27,27,0,0,1,18.73-1.18,21.75,21.75,0,0,1,6.67,3.38,19.61,19.61,0,0,1,5,5.49,18.48,18.48,0,0,1,2.54,7.51h-5.15A17.32,17.32,0,0,0,429.51,41Z"/><path class="cls-1" d="M445.62,51.23a11.19,11.19,0,0,1,3.3-4.09,13.72,13.72,0,0,1,4.89-2.35A23.66,23.66,0,0,1,460,44a27.32,27.32,0,0,1,5.16.49,12.42,12.42,0,0,1,4.62,1.86,10.11,10.11,0,0,1,3.34,3.83,13.79,13.79,0,0,1,1.29,6.4V77.39c0,1.92.93,2.88,2.8,2.88a3.72,3.72,0,0,0,1.52-.3v4c-.56.1-1.05.18-1.48.23a14.68,14.68,0,0,1-1.63.07,7.25,7.25,0,0,1-2.92-.49,3.94,3.94,0,0,1-1.7-1.4,5.27,5.27,0,0,1-.8-2.16,18.17,18.17,0,0,1-.19-2.77h-.15a31.06,31.06,0,0,1-2.62,3.37,13,13,0,0,1-2.95,2.47,13.81,13.81,0,0,1-3.72,1.51,20.08,20.08,0,0,1-5,.53,19.49,19.49,0,0,1-5.11-.64,11.43,11.43,0,0,1-4.18-2,9.78,9.78,0,0,1-2.8-3.56,11.9,11.9,0,0,1-1-5.12,10.14,10.14,0,0,1,1.81-6.41,11.5,11.5,0,0,1,4.82-3.52,27.55,27.55,0,0,1,6.75-1.71c2.5-.33,5-.64,7.62-1,1-.1,1.9-.23,2.65-.38a4.62,4.62,0,0,0,1.9-.79,3.66,3.66,0,0,0,1.17-1.56,6.62,6.62,0,0,0,.42-2.58,8.76,8.76,0,0,0-.79-4,6.47,6.47,0,0,0-2.2-2.46,8.76,8.76,0,0,0-3.26-1.25,21.89,21.89,0,0,0-4-.34A12.06,12.06,0,0,0,452,50.21q-2.88,2.16-3,6.94h-4.78A16,16,0,0,1,445.62,51.23Zm23.89,11.68a2.72,2.72,0,0,1-1.74,1.21,16.45,16.45,0,0,1-2.28.53c-2,.36-4.11.67-6.26.95a35.21,35.21,0,0,0-5.87,1.25A11.5,11.5,0,0,0,449,69.24a5.71,5.71,0,0,0-1.71,4.44A7,7,0,0,0,448,76.9,7.86,7.86,0,0,0,450,79.33a8.31,8.31,0,0,0,2.8,1.55,10.08,10.08,0,0,0,3.26.53,16.55,16.55,0,0,0,5.23-.83,13,13,0,0,0,4.37-2.43,11.59,11.59,0,0,0,4.05-9V62.91Z"/><path class="cls-1" d="M488.39,45.16v9.18h.15A15,15,0,0,1,494.19,47a14.8,14.8,0,0,1,9.14-2.36v4.78a14.44,14.44,0,0,0-5.91.87,13.49,13.49,0,0,0-4.59,2.92,13.3,13.3,0,0,0-3,4.51,15.1,15.1,0,0,0-1.06,5.73V84.29H484V45.16Z"/><path class="cls-1" d="M510,71.36a14.72,14.72,0,0,0,2.31,5,13.14,13.14,0,0,0,4,3.64,11.26,11.26,0,0,0,5.84,1.44q5.24,0,8.19-2.73a14.28,14.28,0,0,0,4.09-7.28h4.78a19.06,19.06,0,0,1-5.57,10.31q-4.07,3.65-11.49,3.64a18.19,18.19,0,0,1-8-1.63,14.65,14.65,0,0,1-5.5-4.47,19.58,19.58,0,0,1-3.14-6.6,29.64,29.64,0,0,1-1-7.92,28.06,28.06,0,0,1,1-7.58,20.45,20.45,0,0,1,3.14-6.64,15.93,15.93,0,0,1,5.5-4.7,16.9,16.9,0,0,1,8-1.78,15.44,15.44,0,0,1,13.46,6.86,20.71,20.71,0,0,1,3,7,30.9,30.9,0,0,1,.75,8.08h-30.1A21.13,21.13,0,0,0,510,71.36ZM533.7,56.77a14.15,14.15,0,0,0-2.47-4.44,12.32,12.32,0,0,0-3.86-3.11,11.14,11.14,0,0,0-5.16-1.17A11.26,11.26,0,0,0,517,49.22a12.25,12.25,0,0,0-3.87,3.11,15.52,15.52,0,0,0-2.54,4.47,22,22,0,0,0-1.25,5.2h25.33A17.28,17.28,0,0,0,533.7,56.77Z"/></g></g></svg>